<?xml version="1.0" encoding="utf-8"?>
<!-- Generator: Adobe Illustrator 16.0.3, SVG Export Plug-In . SVG Version: 6.00 Build 0)  -->
<!DOCTYPE svg PUBLIC "-//W3C//DTD SVG 1.1//EN" "http://www.w3.org/Graphics/SVG/1.1/DTD/svg11.dtd">
<svg version="1.1" id="Layer_1" xmlns="http://www.w3.org/2000/svg" xmlns:xlink="http://www.w3.org/1999/xlink" x="0px" y="0px"
	 width="144px" height="144px" viewBox="0 0 144 144" enable-background="new 0 0 144 144" xml:space="preserve">
<g id="_x35__2_">
	<g>
		<g>
			<g>
				<polygon points="85.413,108.342 74.481,106.904 63.553,108.342 62.798,112.622 86.166,112.622 				"/>
				<polygon points="86.166,112.622 62.798,112.622 60.551,125.372 88.413,125.372 				"/>
				<path d="M100.418,129.626l-1.327-2.027c-1.565-1.031-10.522-1.607-10.522-1.607h-0.045l-0.11-0.619H60.551l-0.11,0.619h-0.045
					c0,0-8.957,0.576-10.522,1.607l-1.326,2.027c-0.548,0.361,0.01,0.973,0.879,0.973h25.056h25.057
					C100.407,130.599,100.965,129.987,100.418,129.626z"/>
			</g>
			<g>
				<g>
					<path d="M133.177,33.708H15.787c-0.253,0-0.46,0.205-0.46,0.46v74.105c0,0.253,0.207,0.459,0.46,0.459h117.39
						c0.253,0,0.46-0.206,0.46-0.459V34.168C133.637,33.913,133.43,33.708,133.177,33.708z"/>
					<rect x="21.676" y="38.902" width="105.612" height="64.637"/>
				</g>
			</g>
		</g>
		<polygon fill="#646464" points="97.44,40.17 23.224,40.17 23.224,40.765 23.224,101.932 80.933,101.932 97.44,101.932 
			125.42,101.932 125.42,40.17 		"/>
	</g>
</g>
<polygon opacity="0.41" fill="#BDBDBD" points="23.224,41.105 23.224,101.932 80.933,101.932 97.44,101.932 125.42,101.932 
	125.42,101.492 "/>
<g>
	<polygon fill="#45B0FF" points="119.786,6.643 25.184,26.939 40.254,97.176 106.889,82.879 131.17,59.697 	"/>
	<polygon fill="#FFFFFF" points="114.945,12.154 31.863,29.981 45.098,91.666 103.617,79.111 124.942,58.752 	"/>
	<g>
		<g>
			<g>
				
					<rect x="42.897" y="51.66" transform="matrix(0.9777 -0.2098 0.2098 0.9777 -9.8639 17.8856)" fill="#0F2743" width="72.959" height="7.559"/>
			</g>
			<g>
				
					<rect x="38.032" y="28.982" transform="matrix(0.9777 -0.2098 0.2098 0.9777 -5.2148 16.3603)" fill="#0F2743" width="72.958" height="7.559"/>
			</g>
			<g>
				
					<rect x="40.463" y="40.322" transform="matrix(0.9777 -0.2098 0.2098 0.9777 -7.5398 17.1251)" fill="#0F2743" width="72.959" height="7.554"/>
			</g>
			<g>
				
					<rect x="45.33" y="63" transform="matrix(0.9778 -0.2098 0.2098 0.9778 -12.1882 18.6472)" fill="#0F2743" width="72.958" height="7.558"/>
			</g>
		</g>
	</g>
	<polygon fill="#3C6C8F" points="131.17,59.697 106.889,82.879 103.201,65.699 	"/>
</g>
</svg>
