<?xml version="1.0" encoding="utf-8"?>
<!-- Generator: Adobe Illustrator 15.0.2, SVG Export Plug-In . SVG Version: 6.00 Build 0)  -->
<!DOCTYPE svg PUBLIC "-//W3C//DTD SVG 1.1//EN" "http://www.w3.org/Graphics/SVG/1.1/DTD/svg11.dtd">
<svg version="1.1" id="Layer_1" xmlns="http://www.w3.org/2000/svg" xmlns:xlink="http://www.w3.org/1999/xlink" x="0px" y="0px"
	 width="100px" height="100px" viewBox="0 0 100 100" enable-background="new 0 0 100 100" xml:space="preserve">
<g>
	<defs>
		<path id="SVGID_1_" d="M24.673,58.328c0-7.83,6.344-14.179,14.175-14.179c7.832,0,14.178,6.349,14.178,14.179
			S46.68,72.506,38.849,72.506C31.018,72.506,24.673,66.158,24.673,58.328 M33.783,23.534l0.208,5.394
			c-1.854,0.307-3.652,0.78-5.376,1.41l-2.535-4.813l-9.017,5.202l2.883,4.572c-1.433,1.178-2.754,2.49-3.945,3.913l-4.612-2.908
			l-5.205,9.013l4.775,2.517c-0.649,1.718-1.142,3.51-1.459,5.363l-5.442-0.212v10.411l5.398-0.212
			c0.302,1.856,0.774,3.653,1.406,5.376l-4.813,2.535l5.206,9.018l4.568-2.882c1.179,1.434,2.49,2.751,3.911,3.942l-2.905,4.612
			l9.014,5.205l2.516-4.775c1.718,0.648,3.509,1.138,5.363,1.46l-0.213,5.441l10.41,0.001l-0.209-5.399
			c1.854-0.303,3.653-0.773,5.375-1.404l2.534,4.815l9.02-5.206l-2.881-4.571c1.432-1.178,2.751-2.487,3.943-3.911l4.611,2.906
			l5.204-9.014l-4.776-2.518c0.647-1.714,1.14-3.508,1.464-5.357l5.437,0.209l0.001-10.409l-5.395,0.211
			c-0.303-1.857-0.777-3.657-1.406-5.377l4.813-2.535l-5.206-9.017l-4.571,2.88c-1.174-1.431-2.487-2.751-3.906-3.944l2.903-4.61
			l-9.016-5.205l-2.515,4.771c-1.716-0.643-3.511-1.138-5.36-1.457l0.211-5.443H33.783z"/>
	</defs>
	<clipPath id="SVGID_2_">
		<use xlink:href="#SVGID_1_"  overflow="visible"/>
	</clipPath>
	
		<linearGradient id="SVGID_3_" gradientUnits="userSpaceOnUse" x1="-347.1011" y1="449.4688" x2="-346.667" y2="449.4688" gradientTransform="matrix(0 -160.3008 -160.3008 0 72089.0938 -55547.4102)">
		<stop  offset="0" style="stop-color:#B2B2B2"/>
		<stop  offset="0" style="stop-color:#DADADA"/>
		<stop  offset="0.1236" style="stop-color:#B3AFAB"/>
		<stop  offset="0.1524" style="stop-color:#B8B4B1"/>
		<stop  offset="0.3661" style="stop-color:#DAD9D8"/>
		<stop  offset="0.4775" style="stop-color:#E7E7E7"/>
		<stop  offset="0.6669" style="stop-color:#E0DEDC"/>
		<stop  offset="1" style="stop-color:#D7D2CD"/>
		<stop  offset="1" style="stop-color:#E2DEDB"/>
		<stop  offset="1" style="stop-color:#EEEBE9"/>
	</linearGradient>
	<rect x="4.058" y="23.534" clip-path="url(#SVGID_2_)" fill="url(#SVGID_3_)" width="69.582" height="69.584"/>
</g>
<g>
	<defs>
		<path id="SVGID_4_" d="M25.072,58.726c0-7.828,6.346-14.177,14.176-14.177s14.178,6.349,14.178,14.177
			c0,7.83-6.348,14.179-14.178,14.179S25.072,66.556,25.072,58.726 M34.181,23.933l0.209,5.394c-1.855,0.308-3.654,0.78-5.377,1.411
			l-2.535-4.814l-9.016,5.203l2.882,4.572c-1.434,1.178-2.754,2.489-3.945,3.912l-4.611-2.906l-5.204,9.012l4.774,2.517
			c-0.648,1.718-1.141,3.512-1.46,5.363l-5.442-0.212v10.411l5.398-0.211c0.302,1.856,0.776,3.65,1.406,5.376l-4.813,2.533
			l5.204,9.019l4.569-2.882c1.179,1.434,2.49,2.752,3.91,3.944l-2.904,4.61l9.014,5.205l2.515-4.775
			c1.719,0.648,3.511,1.139,5.363,1.461l-0.212,5.441l10.41,0.003l-0.21-5.402c1.855-0.304,3.654-0.773,5.377-1.404l2.533,4.814
			l9.019-5.204l-2.879-4.571c1.431-1.178,2.751-2.488,3.941-3.91l4.613,2.905l5.204-9.015l-4.776-2.517
			c0.647-1.717,1.138-3.508,1.462-5.357l5.438,0.207l0.002-10.408l-5.396,0.212c-0.303-1.858-0.777-3.658-1.405-5.377l4.811-2.535
			l-5.204-9.018l-4.57,2.881c-1.176-1.432-2.489-2.75-3.908-3.944l2.904-4.611l-9.015-5.204l-2.517,4.771
			c-1.715-0.643-3.511-1.139-5.36-1.457l0.211-5.443H34.181z"/>
	</defs>
	<clipPath id="SVGID_5_">
		<use xlink:href="#SVGID_4_"  overflow="visible"/>
	</clipPath>
</g>
<g>
	<defs>
		<rect id="SVGID_6_" x="-22.964" y="-230.97" width="347.274" height="347.273"/>
	</defs>
	<clipPath id="SVGID_7_">
		<use xlink:href="#SVGID_6_"  overflow="visible"/>
	</clipPath>
	
		<linearGradient id="SVGID_8_" gradientUnits="userSpaceOnUse" x1="-346.5313" y1="448.9355" x2="-346.097" y2="448.9355" gradientTransform="matrix(0 -118.689 -118.689 0 53322.7031 -41045.2344)">
		<stop  offset="0" style="stop-color:#626363"/>
		<stop  offset="0.2289" style="stop-color:#77797C"/>
		<stop  offset="0.5162" style="stop-color:#8C8F94"/>
		<stop  offset="0.781" style="stop-color:#999CA3"/>
		<stop  offset="1" style="stop-color:#9DA1A8"/>
	</linearGradient>
	<path clip-path="url(#SVGID_7_)" fill="url(#SVGID_8_)" d="M62.97,58.525h1.519c-0.001,14.051-11.39,25.438-25.439,25.44
		c-14.051-0.003-25.44-11.39-25.441-25.44c0.001-14.05,11.39-25.438,25.441-25.439c14.049,0,25.438,11.389,25.439,25.439H62.97
		h-1.521c-0.021-12.371-10.03-22.379-22.4-22.4c-12.373,0.021-22.38,10.029-22.403,22.4c0.023,12.372,10.03,22.38,22.403,22.402
		c12.37-0.022,22.378-10.03,22.4-22.402H62.97z"/>
	
		<linearGradient id="SVGID_9_" gradientUnits="userSpaceOnUse" x1="-346.3823" y1="448.7939" x2="-345.9484" y2="448.7939" gradientTransform="matrix(0 -111.122 -111.122 0 49909.9727 -38408.0273)">
		<stop  offset="0" style="stop-color:#B2B2B2"/>
		<stop  offset="0" style="stop-color:#DADADA"/>
		<stop  offset="0.1236" style="stop-color:#B3AFAB"/>
		<stop  offset="0.1524" style="stop-color:#B8B4B1"/>
		<stop  offset="0.3661" style="stop-color:#DAD9D8"/>
		<stop  offset="0.4775" style="stop-color:#E7E7E7"/>
		<stop  offset="0.6669" style="stop-color:#E0DEDC"/>
		<stop  offset="1" style="stop-color:#D7D2CD"/>
		<stop  offset="1" style="stop-color:#E2DEDB"/>
		<stop  offset="1" style="stop-color:#EEEBE9"/>
	</linearGradient>
	<path clip-path="url(#SVGID_7_)" fill="url(#SVGID_9_)" d="M62.172,58.525h0.868c0,13.251-10.741,23.992-23.991,23.992
		c-13.251,0-23.992-10.741-23.993-23.992c0.001-13.25,10.741-23.991,23.993-23.991c13.25,0,23.991,10.741,23.991,23.991H62.172
		h-0.868c-0.022-12.29-9.964-22.232-22.254-22.255c-12.292,0.022-22.234,9.965-22.256,22.255
		c0.022,12.292,9.965,22.234,22.256,22.258c12.291-0.023,22.232-9.966,22.254-22.258H62.172z"/>
	<path clip-path="url(#SVGID_7_)" fill="#9B9B9B" d="M58.583,58.525h2.823c-0.004,12.349-10.01,22.355-22.357,22.357
		C26.7,80.881,16.693,70.874,16.691,58.525C16.693,46.178,26.7,36.17,39.049,36.169c12.347,0.001,22.353,10.009,22.357,22.356
		H58.583h-2.822c-0.016-9.229-7.483-16.697-16.711-16.713c-9.23,0.016-16.698,7.485-16.715,16.713
		c0.017,9.23,7.484,16.698,16.715,16.713c9.228-0.015,16.696-7.482,16.711-16.713H58.583z"/>
</g>
<g>
	<defs>
		<path id="SVGID_10_" d="M29.577,58.525c0-5.221,4.25-9.472,9.473-9.472c5.224,0,9.473,4.251,9.473,9.472
			c0,5.222-4.249,9.472-9.473,9.472C33.826,67.997,29.577,63.747,29.577,58.525 M25.272,58.525c0,7.599,6.181,13.777,13.777,13.777
			c7.595,0,13.777-6.179,13.777-13.777c0-7.596-6.182-13.776-13.777-13.776C31.453,44.75,25.272,50.93,25.272,58.525"/>
	</defs>
	<clipPath id="SVGID_11_">
		<use xlink:href="#SVGID_10_"  overflow="visible"/>
	</clipPath>
	
		<linearGradient id="SVGID_12_" gradientUnits="userSpaceOnUse" x1="-347.6836" y1="445.4727" x2="-347.2496" y2="445.4727" gradientTransform="matrix(-37.2951 -51.3323 -51.3323 37.2951 9947.3721 -34391.6719)">
		<stop  offset="0" style="stop-color:#626363"/>
		<stop  offset="0.2289" style="stop-color:#77797C"/>
		<stop  offset="0.5162" style="stop-color:#8C8F94"/>
		<stop  offset="0.781" style="stop-color:#999CA3"/>
		<stop  offset="1" style="stop-color:#9DA1A8"/>
	</linearGradient>
	<polygon clip-path="url(#SVGID_11_)" fill="url(#SVGID_12_)" points="34.792,85.404 12.169,54.269 43.306,31.646 65.928,62.783 	
		"/>
</g>
<g>
	<defs>
		<path id="SVGID_13_" d="M30.695,58.525c0-4.606,3.747-8.354,8.354-8.354s8.355,3.748,8.355,8.354s-3.748,8.356-8.355,8.356
			S30.695,63.132,30.695,58.525 M26.896,58.525c0,6.701,5.452,12.15,12.153,12.15c6.7,0,12.15-5.449,12.15-12.15
			c0-6.7-5.45-12.152-12.15-12.152C32.348,46.373,26.896,51.825,26.896,58.525"/>
	</defs>
	<clipPath id="SVGID_14_">
		<use xlink:href="#SVGID_13_"  overflow="visible"/>
	</clipPath>
	
		<linearGradient id="SVGID_15_" gradientUnits="userSpaceOnUse" x1="-347.5435" y1="444.7285" x2="-347.109" y2="444.7285" gradientTransform="matrix(-32.8959 -45.2773 -45.2773 32.8959 8749.6143 -30297.252)">
		<stop  offset="0" style="stop-color:#B2B2B2"/>
		<stop  offset="0" style="stop-color:#DADADA"/>
		<stop  offset="0.1236" style="stop-color:#B3AFAB"/>
		<stop  offset="0.1524" style="stop-color:#B8B4B1"/>
		<stop  offset="0.3661" style="stop-color:#DAD9D8"/>
		<stop  offset="0.4775" style="stop-color:#E7E7E7"/>
		<stop  offset="0.6669" style="stop-color:#E0DEDC"/>
		<stop  offset="1" style="stop-color:#D7D2CD"/>
		<stop  offset="1" style="stop-color:#E2DEDB"/>
		<stop  offset="1" style="stop-color:#EEEBE9"/>
	</linearGradient>
	<polygon clip-path="url(#SVGID_14_)" fill="url(#SVGID_15_)" points="35.293,82.234 15.34,54.771 42.804,34.817 62.755,62.28 	"/>
</g>
<g>
	<defs>
		<path id="SVGID_16_" d="M71.98,23.416c-0.527-3.847,2.163-7.393,6.01-7.92c3.846-0.527,7.393,2.164,7.92,6.012
			c0.525,3.846-2.166,7.392-6.012,7.918C76.054,29.953,72.507,27.262,71.98,23.416 M74.112,5.709l0.466,2.636
			C73.687,8.62,72.836,8.975,72.03,9.4l-1.568-2.195l-4.08,3.163l1.724,2.052c-0.624,0.676-1.184,1.409-1.672,2.188l-2.461-1.118
			l-1.951,4.778l2.515,0.914c-0.204,0.888-0.323,1.801-0.356,2.734l-2.688,0.261l0.701,5.115l2.638-0.467
			c0.273,0.891,0.626,1.742,1.053,2.546l-2.195,1.569l3.165,4.079l2.051-1.723c0.678,0.625,1.408,1.183,2.187,1.673l-1.117,2.462
			l4.78,1.949l0.914-2.516c0.887,0.203,1.8,0.325,2.733,0.358l0.26,2.687l5.115-0.7l-0.466-2.638
			c0.891-0.275,1.741-0.627,2.545-1.053l1.571,2.193l4.08-3.163l-1.723-2.052c0.624-0.674,1.184-1.408,1.674-2.187l2.46,1.118
			l1.949-4.778l-2.516-0.916c0.202-0.888,0.323-1.801,0.359-2.73l2.684-0.265l-0.7-5.114l-2.636,0.467
			c-0.274-0.892-0.627-1.744-1.055-2.546l2.195-1.569l-3.165-4.08l-2.05,1.723c-0.675-0.625-1.408-1.183-2.188-1.676l1.117-2.46
			l-4.777-1.949l-0.916,2.513c-0.887-0.199-1.802-0.324-2.732-0.355l-0.261-2.688L74.112,5.709z"/>
	</defs>
	<clipPath id="SVGID_17_">
		<use xlink:href="#SVGID_16_"  overflow="visible"/>
	</clipPath>
	
		<linearGradient id="SVGID_18_" gradientUnits="userSpaceOnUse" x1="-345.9819" y1="449.0332" x2="-345.5479" y2="449.0332" gradientTransform="matrix(-10.7923 -78.7502 -78.7502 10.7923 31708.7773 -32052.6934)">
		<stop  offset="0" style="stop-color:#B2B2B2"/>
		<stop  offset="0" style="stop-color:#DADADA"/>
		<stop  offset="0.1236" style="stop-color:#B3AFAB"/>
		<stop  offset="0.1524" style="stop-color:#B8B4B1"/>
		<stop  offset="0.3661" style="stop-color:#DAD9D8"/>
		<stop  offset="0.4775" style="stop-color:#E7E7E7"/>
		<stop  offset="0.6669" style="stop-color:#E0DEDC"/>
		<stop  offset="1" style="stop-color:#D7D2CD"/>
		<stop  offset="1" style="stop-color:#E2DEDB"/>
		<stop  offset="1" style="stop-color:#EEEBE9"/>
	</linearGradient>
	<polygon clip-path="url(#SVGID_17_)" fill="url(#SVGID_18_)" points="64.193,41.896 59.509,7.71 93.693,3.026 98.378,37.21 	"/>
</g>
<g>
	<defs>
		<path id="SVGID_19_" d="M72.202,23.584c-0.525-3.846,2.163-7.392,6.011-7.919c3.846-0.528,7.392,2.164,7.919,6.01
			c0.527,3.847-2.164,7.394-6.01,7.921C76.273,30.123,72.729,27.431,72.202,23.584 M74.336,5.878l0.466,2.635
			c-0.893,0.278-1.741,0.631-2.547,1.056l-1.57-2.194l-4.079,3.163l1.725,2.052c-0.625,0.675-1.187,1.408-1.675,2.188l-2.462-1.118
			l-1.95,4.777l2.517,0.916c-0.205,0.887-0.325,1.801-0.357,2.732l-2.688,0.263l0.702,5.116l2.638-0.468
			c0.274,0.891,0.626,1.742,1.053,2.545l-2.193,1.57l3.164,4.079l2.051-1.723c0.675,0.624,1.408,1.184,2.187,1.673l-1.117,2.461
			l4.778,1.95l0.914-2.515c0.889,0.204,1.802,0.323,2.733,0.356l0.262,2.688l5.114-0.701l-0.466-2.639
			c0.89-0.275,1.741-0.626,2.546-1.053l1.57,2.195l4.079-3.163l-1.723-2.053c0.625-0.675,1.184-1.407,1.673-2.187l2.462,1.118
			l1.95-4.78l-2.517-0.915c0.202-0.885,0.323-1.801,0.359-2.729l2.685-0.265l-0.7-5.115l-2.637,0.468
			c-0.274-0.892-0.628-1.745-1.053-2.547l2.193-1.57l-3.164-4.079l-2.051,1.723c-0.675-0.625-1.409-1.184-2.186-1.676l1.115-2.46
			l-4.779-1.95L82.443,8.22c-0.887-0.201-1.802-0.323-2.731-0.355L79.45,5.177L74.336,5.878z"/>
	</defs>
	<clipPath id="SVGID_20_">
		<use xlink:href="#SVGID_19_"  overflow="visible"/>
	</clipPath>
</g>
<g>
	<defs>
		
			<rect id="SVGID_21_" x="-46.007" y="-237.553" transform="matrix(-0.9907 0.1358 -0.1358 -0.9907 245.4015 -144.5707)" width="347.275" height="347.273"/>
	</defs>
	<clipPath id="SVGID_22_">
		<use xlink:href="#SVGID_21_"  overflow="visible"/>
	</clipPath>
	
		<linearGradient id="SVGID_23_" gradientUnits="userSpaceOnUse" x1="-345.0181" y1="448.3262" x2="-344.5846" y2="448.3262" gradientTransform="matrix(-7.9908 -58.3075 -58.3075 7.9908 23464.6113 -23664.4336)">
		<stop  offset="0" style="stop-color:#626363"/>
		<stop  offset="0.2289" style="stop-color:#77797C"/>
		<stop  offset="0.5162" style="stop-color:#8C8F94"/>
		<stop  offset="0.781" style="stop-color:#999CA3"/>
		<stop  offset="1" style="stop-color:#9DA1A8"/>
	</linearGradient>
	<path clip-path="url(#SVGID_22_)" fill="url(#SVGID_23_)" d="M90.806,20.935l0.646-0.089c0.939,6.847-3.852,13.157-10.696,14.096
		c-6.848,0.938-13.156-3.852-14.097-10.698c-0.937-6.847,3.853-13.157,10.697-14.096C84.203,9.21,90.513,14,91.451,20.846
		L90.806,20.935l-0.643,0.088c-0.852-6.132-6.495-10.414-12.629-9.585c-6.132,0.853-10.415,6.494-9.585,12.628
		c0.85,6.133,6.493,10.414,12.629,9.585c6.13-0.852,10.413-6.493,9.585-12.629L90.806,20.935z"/>
	
		<linearGradient id="SVGID_24_" gradientUnits="userSpaceOnUse" x1="-344.7705" y1="448.1631" x2="-344.3367" y2="448.1631" gradientTransform="matrix(-7.4813 -54.5903 -54.5903 7.4813 21966.75 -22139.5391)">
		<stop  offset="0" style="stop-color:#B2B2B2"/>
		<stop  offset="0" style="stop-color:#DADADA"/>
		<stop  offset="0.1236" style="stop-color:#B3AFAB"/>
		<stop  offset="0.1524" style="stop-color:#B8B4B1"/>
		<stop  offset="0.3661" style="stop-color:#DAD9D8"/>
		<stop  offset="0.4775" style="stop-color:#E7E7E7"/>
		<stop  offset="0.6669" style="stop-color:#E0DEDC"/>
		<stop  offset="1" style="stop-color:#D7D2CD"/>
		<stop  offset="1" style="stop-color:#E2DEDB"/>
		<stop  offset="1" style="stop-color:#EEEBE9"/>
	</linearGradient>
	<path clip-path="url(#SVGID_22_)" fill="url(#SVGID_24_)" d="M90.416,20.988l0.215-0.03c0.877,6.392-3.596,12.286-9.989,13.161
		c-6.392,0.876-12.285-3.596-13.161-9.989c-0.877-6.393,3.596-12.284,9.988-13.16c6.394-0.877,12.285,3.594,13.162,9.988
		L90.416,20.988l-0.217,0.029c-0.854-6.154-6.513-10.449-12.672-9.617c-6.153,0.855-10.449,6.515-9.616,12.672
		c0.854,6.154,6.516,10.45,12.67,9.618c6.156-0.855,10.452-6.516,9.618-12.673L90.416,20.988z"/>
	<path clip-path="url(#SVGID_22_)" fill="#9B9B9B" d="M88.652,21.229l1.289-0.177c0.824,6.014-3.38,11.553-9.394,12.379
		c-6.016,0.823-11.555-3.381-12.379-9.395c-0.823-6.015,3.381-11.554,9.395-12.379c6.013-0.823,11.554,3.381,12.378,9.395
		L88.652,21.229l-1.29,0.177c-0.637-4.586-4.856-7.789-9.444-7.168c-4.587,0.637-7.789,4.855-7.169,9.445
		c0.637,4.585,4.855,7.789,9.444,7.168c4.586-0.637,7.789-4.858,7.169-9.445L88.652,21.229z"/>
</g>
<g>
	<defs>
		<path id="SVGID_25_" d="M74.402,23.183c-0.352-2.566,1.449-4.939,4.016-5.291c2.567-0.352,4.939,1.448,5.293,4.015
			c0.351,2.566-1.451,4.94-4.019,5.292C77.128,27.55,74.754,25.749,74.402,23.183 M72.287,23.473
			c0.514,3.732,3.965,6.352,7.695,5.84c3.733-0.512,6.352-3.963,5.841-7.695c-0.513-3.732-3.962-6.353-7.694-5.841
			S71.776,19.74,72.287,23.473"/>
	</defs>
	<clipPath id="SVGID_26_">
		<use xlink:href="#SVGID_25_"  overflow="visible"/>
	</clipPath>
	
		<linearGradient id="SVGID_27_" gradientUnits="userSpaceOnUse" x1="-346.0513" y1="442.916" x2="-345.6173" y2="442.916" gradientTransform="matrix(-21.7775 -22.7066 -22.7066 21.7775 2604.7517 -17475.793)">
		<stop  offset="0" style="stop-color:#626363"/>
		<stop  offset="0.2289" style="stop-color:#77797C"/>
		<stop  offset="0.5162" style="stop-color:#8C8F94"/>
		<stop  offset="0.781" style="stop-color:#999CA3"/>
		<stop  offset="1" style="stop-color:#9DA1A8"/>
	</linearGradient>
	<polygon clip-path="url(#SVGID_26_)" fill="url(#SVGID_27_)" points="78.773,36.037 65.564,22.263 79.337,9.053 92.548,22.827 	"/>
</g>
<g>
	<defs>
		<path id="SVGID_28_" d="M74.951,23.107c-0.31-2.264,1.277-4.357,3.542-4.667c2.263-0.311,4.357,1.279,4.669,3.542
			c0.309,2.264-1.279,4.357-3.544,4.667C77.354,26.959,75.262,25.372,74.951,23.107 M73.086,23.363
			c0.45,3.292,3.496,5.603,6.787,5.151c3.293-0.451,5.604-3.495,5.153-6.788c-0.452-3.292-3.497-5.604-6.788-5.152
			C74.945,17.025,72.634,20.072,73.086,23.363"/>
	</defs>
	<clipPath id="SVGID_29_">
		<use xlink:href="#SVGID_28_"  overflow="visible"/>
	</clipPath>
	
		<linearGradient id="SVGID_30_" gradientUnits="userSpaceOnUse" x1="-345.7114" y1="441.8301" x2="-345.2771" y2="441.8301" gradientTransform="matrix(-19.2102 -20.0298 -20.0298 19.2102 2291.8181 -15385.2891)">
		<stop  offset="0" style="stop-color:#B2B2B2"/>
		<stop  offset="0" style="stop-color:#DADADA"/>
		<stop  offset="0.1236" style="stop-color:#B3AFAB"/>
		<stop  offset="0.1524" style="stop-color:#B8B4B1"/>
		<stop  offset="0.3661" style="stop-color:#DAD9D8"/>
		<stop  offset="0.4775" style="stop-color:#E7E7E7"/>
		<stop  offset="0.6669" style="stop-color:#E0DEDC"/>
		<stop  offset="1" style="stop-color:#D7D2CD"/>
		<stop  offset="1" style="stop-color:#E2DEDB"/>
		<stop  offset="1" style="stop-color:#EEEBE9"/>
	</linearGradient>
	<polygon clip-path="url(#SVGID_29_)" fill="url(#SVGID_30_)" points="78.808,34.445 67.154,22.296 79.303,10.644 90.956,22.793 	
		"/>
</g>
</svg>
