<?xml version="1.0" encoding="utf-8"?>
<!-- Generator: Adobe Illustrator 15.0.2, SVG Export Plug-In . SVG Version: 6.00 Build 0)  -->
<!DOCTYPE svg PUBLIC "-//W3C//DTD SVG 1.1//EN" "http://www.w3.org/Graphics/SVG/1.1/DTD/svg11.dtd">
<svg version="1.1" id="Layer_1" xmlns="http://www.w3.org/2000/svg" xmlns:xlink="http://www.w3.org/1999/xlink" x="0px" y="0px"
	 width="100px" height="100px" viewBox="0 0 100 100" enable-background="new 0 0 100 100" xml:space="preserve">
<linearGradient id="SVGID_1_" gradientUnits="userSpaceOnUse" x1="-336.7231" y1="891.9063" x2="-317.8022" y2="891.9063" gradientTransform="matrix(0.7454 0.6666 -0.6666 0.7454 920.6501 -429.9993)">
	<stop  offset="0" style="stop-color:#B76C55"/>
	<stop  offset="0.146" style="stop-color:#C67961"/>
	<stop  offset="0.3695" style="stop-color:#D5866E"/>
	<stop  offset="0.6282" style="stop-color:#DE8F76"/>
	<stop  offset="1" style="stop-color:#E19178"/>
</linearGradient>
<path fill="url(#SVGID_1_)" d="M89.974,22.131c1.674-1.87,1.875-4.403,0.453-5.666L81.461,8.44c-1.412-1.272-3.918-0.78-5.583,1.09
	l-4.546,5.065l14.104,12.612L89.974,22.131z"/>
<path fill="#E8E8E8" d="M20.518,71.533l-7.683,17.944l4.768,4.264l16.975-9.716C35.076,84.027,20.46,71.013,20.518,71.533z"/>
<path fill="#E3BE59" d="M61.551,25.544l-1.777,1.987L24.272,67.237l-1.998,2.241l-1.438,1.582c-0.113,0.139-0.209,0.286-0.32,0.423
	c0,0-0.602,1.144-1.552,3.729c-0.951,2.565,3.927-1.602,3.927-1.602l1.781-1.986l37.503-41.938l1.784-1.986L61.551,25.544z"/>
<path fill="#F4D88F" d="M70.175,33.256l-1.777,1.986L30.888,77.179l-1.768,1.994c0,0-0.983,5.446,0.64,5.688
	c1.627,0.24,4.796-0.823,4.796-0.823c0.125-0.117,0.262-0.236,0.379-0.364l1.428-1.593l2.003-2.241l35.5-39.697l1.779-1.997
	L70.175,33.256z"/>
<path fill="#EFC75E" d="M63.96,27.701l-1.784,1.986L24.672,71.624l-1.781,1.986c0,0-0.856,4.628,0.477,5.533
	c1.333,0.904,5.753,0.029,5.753,0.029l1.768-1.994l37.509-41.937l1.777-1.986L63.96,27.701z"/>
<linearGradient id="SVGID_2_" gradientUnits="userSpaceOnUse" x1="-337.0708" y1="794.1387" x2="-318.1484" y2="794.1387" gradientTransform="matrix(0.7454 0.6666 -2.6516 2.9652 2423.4741 -2110.0713)">
	<stop  offset="0" style="stop-color:#DADADA"/>
	<stop  offset="0.5273" style="stop-color:#ECECEC"/>
</linearGradient>
<polygon fill="url(#SVGID_2_)" points="71.503,14.415 61.463,25.63 75.568,38.23 85.607,27.017 "/>
<path fill="#444444" d="M18.983,92.605c0.085-0.186-0.353-0.192-0.446-0.206c-0.101-0.024-0.293-0.015-0.336-0.013
	c-0.052,0.005-0.228-0.188-0.227-0.318c0.003-0.133-0.135-0.002-0.135-0.002s-0.169-0.004-0.282,0.003
	c-0.089-0.005-0.187-0.02-0.329-0.052l-0.233-0.129c0.02-0.01,0.042-0.021,0.048-0.031c-0.003-0.051,0.014-0.104,0.019-0.205
	c0-0.101-0.012-0.219-0.178-0.303c-0.168-0.08-0.141,0.009-0.415,0.126c-0.293,0.116-0.187-0.183-0.187-0.183l-0.096-0.005
	c0,0-0.107-0.004-0.228-0.006l-0.35-0.193c0.018-0.041,0.046-0.083,0.044-0.123c-0.003-0.109-0.177-0.07-0.316-0.044l-0.136-0.074
	c0.031-0.07,0.073-0.152,0.073-0.152l-0.152-0.004c0,0-0.095,0.006-0.189,0.001l-0.169-0.102c0.018-0.102,0.114-0.287,0.114-0.287
	l-0.251,0.023c0,0-0.236-0.088-0.249-0.138c-0.012-0.041-0.027-0.212-0.027-0.212l-0.374-0.06c0,0-0.042-0.066-0.045-0.169
	c0.002-0.101-0.009-0.119-0.009-0.119l-0.205,0.063l-0.187-0.002l-0.013-0.129l-0.109-0.004l-0.057-0.097l-0.067-0.009l-0.064,0.004
	l-0.013-0.068v-0.08l-0.167,0.079c-0.036,0.062-0.033,0.122-0.061,0.175l-0.147-0.084l-4.492,9.705l-0.04,0.214l0.263-0.004
	l10.328-6.408l-0.335-0.191C18.779,92.728,18.955,92.656,18.983,92.605z"/>
<g>
	<path fill="#EFC75E" d="M89.175,97.023c3.033-2.99-21.785-35.898-37.771-49.23l-10.91,10.837
		C53.807,74.604,86.14,100.019,89.175,97.023z"/>
	<path opacity="0.82" fill="#F4D88F" d="M48.647,65.115c-2.132-2.159-3.46-3.616-5.264-5.629c0.529-0.524,2.257-0.975,3.353-2.063
		l39.965,38.578C81.994,93.542,62.249,78.891,48.647,65.115z"/>
	<path fill="#BC9F73" d="M33.331,32.777c-0.045,2.961-2.368,8.597-9.289,7.359c0,0-3.951,1.767-6.92-1.239l2.87-0.218
		c0,0-5.963-1.709-8.809-4.596c0,0,1.661,1.444,3.106,0.018c0,0-8.797-7.223-3.231-18.412c0,0-1.118,6.322,1.375,8.848
		c0,0-0.883-11.475,2.02-16.95c0,0-0.989,5.251,0.435,6.691c0,0,1.597-7.277,6.286-11.902c0,0-2.89,3.802-2.909,7.144
		c0,0,3.873-8.334,11.279-8.287c0,0-8.871,4.959-8.896,8.783c0,0,3.37-4.278,7.911-4.25c0,0-5.27,2.356-5.289,5.223
		c0,0,2.88-2.132,5.029-2.119c0,0-2.517,1.417-2.538,4.644c0,0,4.58-6.424,9.447-1.495c0,0-6.932,0.433-6.961,5.213
		c0,0,2.173-3.809,4.071-1.887c0,0-5.205,3.823-0.776,10.029C32.651,26.923,33.362,30.873,33.331,32.777z"/>
	<path fill="#DDDDDD" d="M33.651,33.013L33.651,33.013c0.315,0.318-1.154,2.281-3.28,4.38c-2.13,2.101-4.111,3.544-4.424,3.228
		l14.548,18.011c0.996,1.013,4.266-0.604,7.294-3.596c3.033-2.996,4.683-6.239,3.689-7.25L33.651,33.013z"/>
</g>
</svg>
